<svg xmlns="http://www.w3.org/2000/svg" x="0px" y="0px"
           width="50" height="50"
           viewBox="0 0 50 50">
      <path d="M 39 3 C 36.238281 3 34 5.238281 34 8 C 34 9.691406 35.417969 12.089844 35.859375 14 L 42.140625 14 C 42.582031 12.089844 44 9.691406 44 8 C 44 5.238281 41.761719 3 39 3 Z M 18 16 C 9.148438 16 2 23.148438 2 32 C 2 40.851563 9.148438 48 18 48 C 26.851563 48 34 40.851563 34 32 C 34 23.148438 26.851563 16 18 16 Z M 35.917969 16 C 35.832031 16.59375 35.683594 17.269531 35.488281 18 L 42.625 18 C 42.402344 17.238281 42.230469 16.5625 42.125 16 Z M 34.894531 20 C 34.558594 21.054688 34.171875 22.179688 33.777344 23.324219 C 35.191406 25.894531 36 28.851563 36 32 C 36 36.414063 34.414063 40.449219 31.785156 43.578125 C 31.910156 44.460938 32 45 32 45 C 32 46.105469 35.132813 47 39 47 C 42.867188 47 46 46.105469 46 45 C 46 45 47 39 47 34 C 47 30.628906 44.730469 24.535156 43.25 20 Z M 17.5 21 C 18.882813 21 20 22.117188 20 23.5 C 20 24.882813 18.882813 26 17.5 26 C 16.117188 26 15 24.882813 15 23.5 C 15 22.117188 16.117188 21 17.5 21 Z M 24 25 C 25.105469 25 26 25.894531 26 27 C 26 28.105469 25.105469 29 24 29 C 22.894531 29 22 28.105469 22 27 C 22 25.894531 22.894531 25 24 25 Z M 18 29 C 19.105469 29 20 29.894531 20 31 C 20 32.105469 19.105469 33 18 33 C 16.894531 33 16 32.105469 16 31 C 16 29.894531 16.894531 29 18 29 Z"></path>
      </svg>
