<?xml version="1.0" standalone="no"?>
<!DOCTYPE svg PUBLIC "-//W3C//DTD SVG 20010904//EN"
 "http://www.w3.org/TR/2001/REC-SVG-20010904/DTD/svg10.dtd">
<svg version="1.0" xmlns="http://www.w3.org/2000/svg"
 width="300.000000pt" height="300.000000pt" viewBox="0 0 300.000000 300.000000"
 preserveAspectRatio="xMidYMid meet">
<metadata>
Created by potrace 1.10, written by Peter Selinger 2001-2011
</metadata>
<g transform="translate(0.000000,300.000000) scale(0.100000,-0.100000)"
fill="#000000" stroke="none">
<path d="M1413 2205 c-75 -34 -113 -96 -113 -179 0 -76 27 -128 88 -171 38
-26 52 -30 112 -30 60 0 74 4 112 30 61 43 88 95 88 171 0 83 -38 145 -113
179 -66 31 -108 31 -174 0z m177 -47 c69 -48 92 -152 47 -219 -24 -37 -97 -79
-137 -79 -40 0 -113 42 -137 79 -47 70 -23 177 49 221 47 29 134 27 178 -2z"/>
<path d="M829 2137 c-91 -34 -139 -102 -139 -196 0 -145 144 -241 278 -186
150 63 167 278 28 360 -53 31 -119 40 -167 22z m152 -61 c44 -30 69 -80 69
-139 0 -59 -32 -106 -93 -136 -137 -68 -273 69 -213 213 34 82 160 114 237 62z"/>
<path d="M2058 2141 c-93 -30 -148 -102 -148 -195 0 -118 85 -206 200 -206
153 0 249 164 177 301 -40 76 -152 124 -229 100z m149 -69 c44 -31 66 -84 61
-144 -6 -62 -31 -97 -91 -127 -109 -54 -227 20 -227 144 0 58 20 98 68 130 32
23 45 26 97 23 42 -3 70 -10 92 -26z"/>
<path d="M1425 1745 c-57 -20 -130 -102 -150 -167 -9 -30 -15 -90 -15 -142 l0
-91 120 9 c68 5 172 5 240 0 l120 -9 0 91 c0 127 -19 183 -83 249 -71 73 -143
91 -232 60z m118 -36 c48 -13 102 -61 129 -113 22 -43 39 -195 22 -197 -5 0
-94 -1 -199 -2 l-190 -1 -3 54 c-7 129 53 229 156 260 37 11 42 11 85 -1z"/>
<path d="M821 1666 c-51 -18 -108 -72 -139 -129 -26 -50 -27 -60 -30 -221 l-4
-169 33 27 c70 59 238 121 412 150 l37 7 0 58 c0 91 -26 158 -85 216 -69 70
-144 90 -224 61z m147 -50 c35 -18 75 -62 96 -104 24 -47 32 -125 15 -139 -8
-6 -60 -22 -117 -36 -56 -14 -138 -41 -182 -60 -44 -19 -82 -32 -85 -29 -10
10 -5 187 6 227 15 53 56 109 99 134 42 24 128 28 168 7z"/>
<path d="M2040 1667 c-19 -6 -58 -34 -85 -62 -59 -58 -85 -125 -85 -216 l0
-58 38 -7 c173 -29 341 -91 411 -150 l33 -27 -4 169 c-3 161 -5 171 -30 220
-60 114 -169 165 -278 131z m148 -51 c15 -8 39 -27 53 -43 50 -53 63 -91 67
-200 2 -57 2 -109 -1 -117 -5 -12 -22 -7 -88 21 -45 20 -131 47 -191 62 -124
30 -130 36 -109 123 14 61 54 120 101 147 42 24 128 28 168 7z"/>
<path d="M1280 1294 c-399 -48 -630 -145 -630 -263 0 -36 68 -99 146 -137 163
-78 399 -118 704 -118 308 0 540 39 706 119 76 37 144 101 144 136 0 97 -179
190 -465 240 -93 16 -171 22 -345 24 -124 2 -241 1 -260 -1z m-135 -91 c-8
-16 -51 -80 -95 -143 -75 -109 -93 -151 -70 -165 28 -17 4 -21 -47 -8 -89 22
-203 82 -223 116 -31 50 -7 83 95 134 72 37 265 92 323 93 l33 0 -16 -27z
m726 -95 c45 -68 95 -140 111 -160 l30 -38 -512 0 -512 0 30 38 c16 20 66 92
111 160 l81 122 290 0 290 0 81 -122z m141 93 c152 -38 270 -98 287 -145 5
-12 4 -31 -2 -43 -19 -41 -146 -109 -248 -132 -36 -8 -52 0 -29 14 22 14 6 51
-74 169 -115 170 -114 166 -77 166 16 0 80 -13 143 -29z m-98 -340 c8 -13
-107 -31 -271 -42 -204 -13 -574 14 -557 42 7 12 821 12 828 0z"/>
<path d="M1310 1210 c0 -5 25 -10 55 -10 30 0 55 5 55 10 0 6 -25 10 -55 10
-30 0 -55 -4 -55 -10z"/>
<path d="M1450 1210 c0 -5 23 -10 50 -10 28 0 50 5 50 10 0 6 -22 10 -50 10
-27 0 -50 -4 -50 -10z"/>
<path d="M1580 1210 c0 -5 25 -10 55 -10 30 0 55 5 55 10 0 6 -25 10 -55 10
-30 0 -55 -4 -55 -10z"/>
<path d="M1202 1178 c-20 -20 -14 -28 21 -28 21 0 36 7 45 20 11 18 10 20 -21
20 -18 0 -38 -5 -45 -12z"/>
<path d="M1291 1167 c-5 -13 -23 -54 -40 -91 -17 -38 -31 -70 -31 -72 0 -2
126 -4 280 -4 154 0 280 1 280 3 0 2 -18 43 -40 92 l-39 90 -201 3 -200 2 -9
-23z m303 -32 l59 -22 -59 -28 c-74 -35 -114 -35 -188 0 l-59 28 74 28 c78 29
80 29 173 -6z m-241 -61 l29 -34 -46 0 c-49 0 -57 11 -36 51 14 25 20 24 53
-17z m357 -16 c0 -15 -8 -18 -47 -18 l-47 0 34 35 c32 33 36 34 47 18 7 -9 13
-25 13 -35z"/>
<path d="M1732 1170 c9 -13 24 -20 45 -20 18 0 33 4 33 8 0 18 -26 32 -57 32
-31 0 -32 -2 -21 -20z"/>
<path d="M1165 1118 c-15 -23 -15 -23 21 -26 26 -2 40 2 50 15 20 27 17 33
-20 33 -25 0 -40 -7 -51 -22z"/>
<path d="M1750 1132 c0 -26 28 -43 63 -40 37 3 37 3 22 26 -11 15 -26 22 -51
22 -19 0 -34 -4 -34 -8z"/>
<path d="M1124 1058 c-4 -7 -14 -23 -22 -35 -14 -23 -14 -23 35 -23 46 0 50 2
66 35 l17 35 -45 0 c-24 0 -47 -5 -51 -12z"/>
<path d="M1797 1036 c16 -34 19 -36 66 -36 l49 0 -21 33 c-17 27 -27 32 -66
35 l-45 3 17 -35z"/>
<path d="M1200 961 c-5 -11 -10 -22 -10 -25 0 -3 40 -6 89 -6 89 0 101 5 101
41 0 5 -38 9 -85 9 -73 0 -86 -3 -95 -19z"/>
<path d="M1410 955 c0 -25 1 -25 90 -25 89 0 90 0 90 25 0 25 -1 25 -90 25
-89 0 -90 0 -90 -25z"/>
<path d="M1620 971 c0 -36 12 -41 101 -41 49 0 89 3 89 6 0 3 -5 14 -10 25 -9
16 -22 19 -95 19 -47 0 -85 -4 -85 -9z"/>
</g>
</svg>
