<?xml version="1.0" standalone="no"?>
<!DOCTYPE svg PUBLIC "-//W3C//DTD SVG 20010904//EN"
 "http://www.w3.org/TR/2001/REC-SVG-20010904/DTD/svg10.dtd">
<svg version="1.0" xmlns="http://www.w3.org/2000/svg"
 width="300.000000pt" height="300.000000pt" viewBox="0 0 300.000000 300.000000"
 preserveAspectRatio="xMidYMid meet">
<g transform="translate(0.000000,300.000000) scale(0.100000,-0.100000)"
 stroke="none">
<path d="M460 1500 l0 -1500 1040 0 1040 0 0 1500 0 1500 -1040 0 -1040 0 0
-1500z m1985 0 l0 -1415 -947 -3 -948 -2 0 1420 0 1420 948 -2 947 -3 0 -1415z"/>
<path d="M1402 2225 c-338 -157 -413 -988 -123 -1348 50 -62 97 -95 159 -113
91 -27 170 1 254 89 63 66 130 201 165 332 25 93 27 115 27 310 1 226 -6 277
-60 425 -73 202 -202 330 -333 330 -20 0 -60 -11 -89 -25z"/>
</g>
</svg>
